<svg xmlns="http://www.w3.org/2000/svg" width="145" height="12" fill="none"><path fill="#fff" d="M2.048.76h1.96l2.76 7.234L9.518.761h1.96L7.55 11H5.985L2.048.76Zm-1.09 0h1.969l.36 7.726V11H.958V.76Zm9.66 0h1.977V11h-2.338V8.486l.36-7.725Zm8.217 2.383L15.935 11h-2.356L17.666.76h1.582l-.413 2.383ZM21.595 11l-2.936-7.866L18.246.76h1.6L23.94 11h-2.346Zm-.097-3.806v1.697h-5.757V7.194h5.757ZM24.926.761h4.157a6.57 6.57 0 0 1 1.696.202c.51.129.94.325 1.292.589.358.258.63.58.818.967.187.38.28.823.28 1.327 0 .574-.099 1.06-.298 1.459a2.67 2.67 0 0 1-.835.984c-.357.252-.776.46-1.257.624l-.756.43H26.43l-.018-1.836h2.698c.381 0 .7-.059.958-.176.258-.117.452-.284.58-.5.13-.218.194-.473.194-.766a1.46 1.46 0 0 0-.202-.782 1.234 1.234 0 0 0-.59-.51c-.257-.117-.58-.175-.966-.175h-1.82V11h-2.337V.76ZM31.069 11l-2.496-4.526 2.461-.018 2.54 4.439V11H31.07ZM37.248.76V11h-2.33V.76h2.33Zm6.54 0-4.299 5.16-2.425 2.373-.572-2.118L38.18 4.02 40.878.76h2.91ZM41.158 11l-3.173-4.65 1.75-1.37L43.927 11h-2.769Zm16.12-1.828V11h-7.85V9.172h7.85Zm-.106-7.19L50.51 11h-1.66V9.743L55.582.761h1.59v1.221ZM56.39.761v1.828h-7.54V.76h7.54Zm8.34 0h2.338v6.706c0 .79-.181 1.462-.545 2.012a3.35 3.35 0 0 1-1.494 1.24c-.633.281-1.365.422-2.197.422-.832 0-1.567-.141-2.206-.422a3.411 3.411 0 0 1-1.503-1.24c-.357-.55-.536-1.221-.536-2.012V.76h2.32v6.706c0 .428.076.78.229 1.054.158.276.38.478.668.607.287.129.63.193 1.028.193.404 0 .747-.064 1.028-.193.282-.129.495-.331.642-.607.152-.275.228-.626.228-1.054V.76Zm10.54 6.785h2.338c-.052.715-.26 1.342-.624 1.88-.363.54-.87.962-1.52 1.266-.645.3-1.415.449-2.312.449-.715 0-1.353-.115-1.916-.343a4.001 4.001 0 0 1-1.441-.985 4.484 4.484 0 0 1-.905-1.564c-.205-.61-.308-1.298-.308-2.065v-.598c0-.768.108-1.456.325-2.065a4.413 4.413 0 0 1 .923-1.565 3.964 3.964 0 0 1 1.433-.993c.562-.234 1.192-.352 1.89-.352.925 0 1.704.159 2.337.475.639.316 1.134.753 1.486 1.31a4.16 4.16 0 0 1 .641 1.88h-2.329a2.406 2.406 0 0 0-.264-.94 1.548 1.548 0 0 0-.676-.65c-.3-.159-.698-.238-1.196-.238a2.24 2.24 0 0 0-.975.202 1.745 1.745 0 0 0-.703.59c-.188.257-.329.582-.422.975-.094.387-.14.84-.14 1.362v.607c0 .515.04.97.122 1.362a2.8 2.8 0 0 0 .404.975c.182.264.414.463.695.598.287.135.627.202 1.02.202.462 0 .843-.064 1.142-.193a1.44 1.44 0 0 0 .686-.589c.164-.27.26-.6.29-.993ZM81.387.76V11h-2.33V.76h2.33Zm6.539 0-4.298 5.16-2.426 2.373-.571-2.118 1.687-2.154 2.699-3.26h2.909ZM85.298 11l-3.173-4.65 1.749-1.37L88.066 11h-2.768Zm11.039-1.828V11h-5.871V9.172h5.87ZM91.248.76V11h-2.33V.76h2.33Zm4.333 4.034v1.828h-5.115V4.795h5.115ZM96.337.76v1.837h-5.871V.76h5.87Zm1.274 0h4.158c.627 0 1.192.067 1.696.202.51.129.94.325 1.292.589.357.258.63.58.817.967.188.38.281.823.281 1.327 0 .574-.099 1.06-.298 1.459a2.68 2.68 0 0 1-.835.984c-.358.252-.777.46-1.257.624l-.756.43h-3.595l-.017-1.836h2.698c.381 0 .7-.059.958-.176.258-.117.451-.284.58-.5.129-.218.193-.473.193-.766a1.45 1.45 0 0 0-.202-.782 1.234 1.234 0 0 0-.589-.51c-.257-.117-.58-.175-.966-.175h-1.82V11h-2.338V.76ZM103.755 11l-2.496-4.526 2.461-.018 2.54 4.439V11h-2.505Zm8.191-4.386h-2.839l-.017-1.564h2.522c.364 0 .668-.044.914-.132.252-.094.44-.229.563-.404a1.15 1.15 0 0 0 .184-.66c0-.298-.061-.539-.184-.72a1.022 1.022 0 0 0-.554-.405c-.246-.087-.554-.131-.923-.131h-1.678V11h-2.33V.76h3.85c.65 0 1.231.06 1.74.177.51.11.944.284 1.301.518.363.229.639.522.826.879.188.352.282.768.282 1.248 0 .416-.1.806-.299 1.169-.2.363-.519.66-.958.888-.434.228-1.008.345-1.723.351l-.677.624ZM111.841 11h-3.349l.87-1.828h2.479c.392 0 .712-.053.958-.158.246-.112.428-.261.545-.449.123-.187.184-.398.184-.632 0-.27-.052-.501-.158-.695a1.026 1.026 0 0 0-.51-.457c-.234-.111-.539-.167-.914-.167h-2.188l.009-1.564h2.707l.536.624c.685-.03 1.236.076 1.652.316.416.235.718.54.905.914.194.375.29.762.29 1.16 0 .504-.087.94-.263 1.31a2.396 2.396 0 0 1-.782.914c-.34.24-.759.419-1.257.536a7.526 7.526 0 0 1-1.714.176Zm13.078-1.828V11h-5.871V9.172h5.871ZM119.83.76V11h-2.329V.76h2.329Zm4.333 4.034v1.828h-5.115V4.795h5.115Zm.756-4.034v1.837h-5.871V.76h5.871Zm1.274 0h4.158c.627 0 1.192.067 1.696.202.51.129.94.325 1.292.589.357.258.63.58.817.967.188.38.282.823.282 1.327 0 .574-.1 1.06-.299 1.459a2.68 2.68 0 0 1-.835.984c-.358.252-.777.46-1.257.624l-.756.43h-3.595l-.017-1.836h2.698c.381 0 .7-.059.958-.176.258-.117.451-.284.58-.5.129-.218.193-.473.193-.766a1.45 1.45 0 0 0-.202-.782 1.234 1.234 0 0 0-.589-.51c-.257-.117-.58-.175-.966-.175h-1.82V11h-2.338V.76ZM132.337 11l-2.496-4.526 2.461-.018 2.54 4.439V11h-2.505Zm12.621-5.432v4.166c-.176.194-.445.402-.809.624-.357.217-.82.402-1.388.554-.569.152-1.254.229-2.057.229a5.558 5.558 0 0 1-1.942-.326 4.14 4.14 0 0 1-1.512-.958 4.357 4.357 0 0 1-.976-1.564c-.228-.615-.342-1.318-.342-2.11v-.606c0-.79.111-1.491.334-2.1a4.372 4.372 0 0 1 .949-1.565 3.97 3.97 0 0 1 1.459-.967 5.112 5.112 0 0 1 1.881-.334c.972 0 1.766.15 2.382.449.621.293 1.092.7 1.415 1.221.322.522.521 1.12.597 1.793h-2.25a2.173 2.173 0 0 0-.316-.87 1.453 1.453 0 0 0-.659-.562c-.282-.13-.648-.194-1.099-.194-.363 0-.691.065-.984.194a1.911 1.911 0 0 0-.747.588c-.206.258-.361.58-.466.967a5.193 5.193 0 0 0-.158 1.363v.624c0 .515.052.97.158 1.362.111.392.275.72.492.984.217.258.486.454.809.59a2.94 2.94 0 0 0 1.125.201c.509 0 .902-.052 1.177-.158.276-.111.472-.21.589-.299v-1.66h-2.092V5.567h4.43Z"/></svg>